<svg xmlns="http://www.w3.org/2000/svg" viewBox="0 0 1440 360">
<defs><linearGradient id="bg" x1="0" y1="0" x2="1" y2="1"><stop stop-color="#0b1421"/><stop offset=".55" stop-color="#181920"/><stop offset="1" stop-color="#24110e"/></linearGradient><linearGradient id="gold" x1="0" y1="0" x2="1" y2="1"><stop stop-color="#f5db8a"/><stop offset=".55" stop-color="#d99a31"/><stop offset="1" stop-color="#9d6329"/></linearGradient><radialGradient id="glow"><stop stop-color="#d59a38" stop-opacity=".24"/><stop offset="1" stop-color="#d59a38" stop-opacity="0"/></radialGradient><pattern id="grid" width="44" height="44" patternUnits="userSpaceOnUse"><path d="M44 0H0V44" fill="none" stroke="#ddbd78" stroke-opacity=".06"/></pattern></defs>
<rect width="1440" height="360" rx="24" fill="url(#bg)"/><rect width="1440" height="360" rx="24" fill="url(#grid)"/><ellipse cx="740" cy="190" rx="430" ry="210" fill="url(#glow)"/>
<g fill="none" stroke="#dfb764" stroke-opacity=".13" stroke-width="1.2"><path d="M-20 80C160 4 270 60 390 25S660 3 780 55 1100 85 1450 12M-20 105C160 29 270 85 390 50S660 28 780 80 1100 110 1450 37M-20 130C160 54 270 110 390 75S660 53 780 105 1100 135 1450 62M-20 275C130 212 250 232 360 193S630 170 760 215 1040 290 1460 220M-20 300C130 237 250 257 360 218S630 195 760 240 1040 315 1460 245"/></g>
<path d="M135 224C260 90 340 300 485 190S730 75 850 185s175 105 268 14 155-45 210-95" fill="none" stroke="url(#gold)" stroke-width="2" stroke-dasharray="5 10" stroke-linecap="round" opacity=".7"/>
<g fill="#0e1520" stroke="url(#gold)" stroke-width="2"><circle cx="135" cy="224" r="6" fill="#edc875"/><circle cx="485" cy="190" r="6" fill="#edc875"/><circle cx="850" cy="185" r="6" fill="#edc875"/><circle cx="1118" cy="199" r="6" fill="#edc875"/><circle cx="1328" cy="104" r="6" fill="#edc875"/></g>
<g transform="translate(68 111)" fill="none" stroke="#e7c77a" stroke-width="2" stroke-linecap="round" stroke-linejoin="round"><path d="M0 112h150l-16 26H27Z" fill="#b97834" fill-opacity=".22"/><path d="M47 109V42m55 67V19m0 0l29 77H103m-56-54L17 99h30"/><path d="M48 48H95L52 95Z" fill="#dfb45e" fill-opacity=".12"/><path d="M108 26h28v68h-28Z" fill="#dfb45e" fill-opacity=".14"/><path d="M3 148q26 14 52 0t52 0 52 0M10 160q27 12 54 0t54 0 42 0" stroke-opacity=".45"/></g>
<g transform="translate(415 72)" stroke="#e5c478" stroke-width="2" stroke-linejoin="round"><path d="M6 10h107l24 21v153H6Z" fill="#c89b52" fill-opacity=".09"/><path d="M113 10v23h24" fill="none"/><path d="M22 50h86M22 67h92M22 84h76M22 101h86M22 118h64" stroke-opacity=".7" stroke-linecap="round"/><circle cx="70" cy="153" r="19" fill="none" stroke-width="1.4"/><path d="M70 135v36m-18-18h36m-31-13 26 26m0-26-26 26" stroke-width="1.2" stroke-opacity=".7"/></g>
<g transform="translate(816 95)" stroke="#e9c778" fill="none" stroke-linecap="round" stroke-linejoin="round"><circle cx="62" cy="73" r="57" stroke-width="2.5"/><circle cx="62" cy="73" r="8" stroke-width="2.5"/><g stroke-width="1.6"><path d="M62 16v114M5 73h114M22 33l80 80M102 33l-80 80M40 19l44 108M6 51l112 44M84 19 40 127M6 95l112-44"/></g><path d="M62 81v101m0-31-38 31m38-31 36 31M23 182h78" stroke-width="2.6"/></g>
<g transform="translate(1111 61)" fill="none" stroke="#e8c778" stroke-width="2" stroke-linejoin="round"><path d="M11 142V75l19-20 18 20v67m68 0V75l19-20 18 20v67M2 142h151v73H2Z" fill="#b56f36" fill-opacity=".12"/><path d="M0 75h66V51H0Zm68 0h69V51H68Zm-66 0h137"/><path d="M42 215v-40q34-44 68 0v40M17 163h18m74 0h18M54 126h10m26 0h10" stroke-linecap="round"/><path d="M68 51V33m0 0 25 9-25 8" stroke-width="1.8"/></g></svg>